<svg width="36" height="36" viewBox="0 0 36 36" fill="none" xmlns="http://www.w3.org/2000/svg">
  <g filter="url(#filter0_ii_1_158)">
    <rect width="36" height="36" rx="18" fill="white" />
    <rect width="36" height="36" rx="18" fill="url(#paint0_linear_1_158)" />
    <path
      d="M14.855 12.0163C14.855 11.6653 14.996 11.3291 15.2464 11.0831L19.4576 6.94602C20.1471 6.26863 21.3118 6.75712 21.3118 7.72371V28.2758C21.3118 29.2531 20.1251 29.7367 19.442 29.0379L15.2898 24.79C15.011 24.5048 14.855 24.1219 14.855 23.7231V12.0163Z"
      fill="white" />
    <path
      d="M22.7837 14.0526C22.7837 13.8229 22.876 13.6029 23.0399 13.4419L25.7955 10.7347C26.2467 10.2915 27.0089 10.6111 27.0089 11.2436V24.6922C27.0089 25.3317 26.2323 25.6482 25.7853 25.1909L23.0683 22.4112C22.8859 22.2246 22.7837 21.9741 22.7837 21.7131V14.0526Z"
      fill="white" />
    <path
      d="M13.383 14.0526C13.383 13.8229 13.2907 13.6029 13.1269 13.4419L10.3712 10.7347C9.92002 10.2915 9.1579 10.6111 9.1579 11.2436V24.6922C9.1579 25.3317 9.93443 25.6482 10.3814 25.1909L13.0985 22.4112C13.2809 22.2246 13.383 21.9741 13.383 21.7131V14.0526Z"
      fill="white" />
  </g>
  <defs>
    <linearGradient id="paint0_linear_1_158" x1="18" y1="-6" x2="18" y2="29.5" gradientUnits="userSpaceOnUse">
      <stop stop-color="#57FCFF" />
      <stop offset="0.99" stop-color="#5AA7FF" />
    </linearGradient>
  </defs>
</svg>