<svg width="2109" height="1131" viewBox="0 0 2109 1131" fill="none" xmlns="http://www.w3.org/2000/svg">
  <g clip-path="url(#clip0_95_9608)">
    <g mask="url(#mask6_95_9608)">
      <mask id="mask7_95_9608" style="mask-type:alpha" maskUnits="userSpaceOnUse" x="1144" y="-23" width="630"
        height="457">
        <path d="M1144 -23H1774V434H1144V-23Z" fill="url(#paint6_linear_95_9608)" />
      </mask>
      <g mask="url(#mask7_95_9608)">
        <path
          d="M1146.66 248.612C1146.66 250.085 1145.47 251.279 1144 251.279C1142.52 251.279 1141.33 250.085 1141.33 248.612C1141.33 247.139 1142.52 245.945 1144 245.945C1145.47 245.945 1146.66 247.139 1146.66 248.612ZM1485 -23C1485 -23.276 1485.22 -23.5 1485.5 -23.5C1485.77 -23.5 1486 -23.276 1486 -23H1485ZM1361.42 249.112H1144V248.112H1361.42V249.112ZM1481.88 120.776L1373.8 243.516L1373.05 242.855L1481.13 120.115L1481.88 120.776ZM1486 -23V109.872H1485V-23H1486ZM1481.13 120.115C1483.62 117.285 1485 113.643 1485 109.872H1486C1486 113.886 1484.53 117.763 1481.88 120.776L1481.13 120.115ZM1361.42 248.112C1365.87 248.112 1370.11 246.197 1373.05 242.855L1373.8 243.516C1370.67 247.073 1366.16 249.112 1361.42 249.112V248.112Z"
          fill="#1F1F1F" />
        <path
          d="M1517.32 432.5C1517.32 433.973 1516.12 435.167 1514.65 435.167C1513.18 435.167 1511.98 433.973 1511.98 432.5C1511.98 431.027 1513.18 429.833 1514.65 429.833C1516.12 429.833 1517.32 431.027 1517.32 432.5ZM1803.67 3C1803.67 4.473 1802.47 5.66699 1801 5.66699C1799.53 5.66699 1798.33 4.473 1798.33 3C1798.33 1.527 1799.53 0.333008 1801 0.333008C1802.47 0.333008 1803.67 1.527 1803.67 3ZM1515.15 196.666V432.5H1514.15V196.666H1515.15ZM1584.1 112.739L1519.03 186.405L1518.28 185.743L1583.35 112.077L1584.1 112.739ZM1690.37 107.5H1595.72V106.5H1690.37V107.5ZM1701.33 101.96L1800.65 2.646L1801.35 3.354L1702.04 102.668L1701.33 101.96ZM1690.37 106.5C1694.48 106.5 1698.43 104.867 1701.33 101.96L1702.04 102.668C1698.95 105.762 1694.75 107.5 1690.37 107.5V106.5ZM1583.35 112.077C1586.48 108.531 1590.98 106.5 1595.72 106.5V107.5C1591.27 107.5 1587.04 109.408 1584.1 112.739L1583.35 112.077ZM1514.15 196.666C1514.15 192.643 1515.62 188.759 1518.28 185.743L1519.03 186.405C1516.53 189.238 1515.15 192.887 1515.15 196.666H1514.15Z"
          fill="#1F1F1F" />
        <path
          d="M1514.5 304.5C1506.49 304.5 1500 298.008 1500 290C1500 281.992 1506.49 275.5 1514.5 275.5C1522.51 275.5 1529 281.992 1529 290C1529 298.008 1522.51 304.5 1514.5 304.5Z"
          fill="#090909" stroke="#1F1F1F" />
        <path
          d="M1688.27 102.337L1698.07 95.4125C1698.75 94.9345 1699.69 95.0955 1700.17 95.7721L1707.09 105.573C1707.57 106.25 1707.41 107.186 1706.73 107.664L1696.93 114.588C1696.25 115.066 1695.32 114.905 1694.84 114.228L1687.91 104.427C1687.44 103.751 1687.6 102.815 1688.27 102.337Z"
          fill="#090909" stroke="#1F1F1F" />
        <path
          d="M1587.11 111.019L1593.98 111.921C1595.12 112.072 1596 110.926 1595.56 109.86L1592.91 103.46C1592.46 102.393 1591.03 102.205 1590.33 103.121L1586.11 108.619C1585.41 109.535 1585.96 110.869 1587.11 111.019Z"
          fill="#090909" stroke="#1F1F1F" />
        <path
          d="M1515 195.5C1512.51 195.5 1510.5 193.485 1510.5 191C1510.5 188.515 1512.51 186.5 1515 186.5C1517.49 186.5 1519.5 188.515 1519.5 191C1519.5 193.485 1517.49 195.5 1515 195.5Z"
          fill="#090909" stroke="#1F1F1F" />
        <path
          d="M1313.16 418.653C1313.16 420.126 1311.97 421.319 1310.5 421.319C1309.03 421.319 1307.83 420.126 1307.83 418.653C1307.83 417.18 1309.03 415.986 1310.5 415.986C1311.97 415.986 1313.16 417.18 1313.16 418.653ZM1640.66 -15.5C1640.66 -14.027 1639.47 -12.833 1638 -12.833C1636.53 -12.833 1635.33 -14.027 1635.33 -15.5C1635.33 -16.973 1636.53 -18.167 1638 -18.167C1639.47 -18.167 1640.66 -16.973 1640.66 -15.5ZM1458.65 270.5H1459.15V270.707L1459 270.854L1458.65 270.5ZM1638.38 -15.178L1462.79 193.468L1462.03 192.824L1637.62 -15.822L1638.38 -15.178ZM1459.15 203.449V270.5H1458.15V203.449H1459.15ZM1459 270.854L1310.85 419.006L1310.14 418.299L1458.3 270.146L1459 270.854ZM1462.79 193.468C1460.44 196.262 1459.15 199.797 1459.15 203.449H1458.15C1458.15 199.561 1459.52 195.799 1462.03 192.824L1462.79 193.468Z"
          fill="#1F1F1F" />
        <path
          d="M1577.6 58.498L1589.23 54.137C1590.32 53.727 1590.55 52.28 1589.63 51.556L1579.57 43.599C1578.65 42.875 1577.29 43.429 1577.15 44.587L1575.59 56.905C1575.45 58.025 1576.55 58.894 1577.6 58.498Z"
          fill="#090909" stroke="#1F1F1F" />
        <path
          d="M1509.49 128.663L1518.68 136.377C1519.32 136.909 1519.4 137.855 1518.87 138.49L1511.15 147.683C1510.62 148.317 1509.67 148.4 1509.04 147.867L1499.85 140.154C1499.21 139.622 1499.13 138.675 1499.66 138.041L1507.38 128.848C1507.91 128.214 1508.85 128.131 1509.49 128.663Z"
          fill="#090909" stroke="#1F1F1F" />
        <path
          d="M1459.8 269.75L1463.26 263.75C1463.84 262.75 1463.12 261.5 1461.96 261.5H1455.03C1453.88 261.5 1453.16 262.75 1453.73 263.75L1457.2 269.75C1457.78 270.75 1459.22 270.75 1459.8 269.75Z"
          fill="#090909" stroke="#1F1F1F" />
        <path
          d="M1388 345.5C1385.51 345.5 1383.5 343.485 1383.5 341C1383.5 338.515 1385.51 336.5 1388 336.5C1390.49 336.5 1392.5 338.515 1392.5 341C1392.5 343.485 1390.49 345.5 1388 345.5Z"
          fill="#090909" stroke="#1F1F1F" />
        <path
          d="M1311 433.5C1302.99 433.5 1296.5 427.008 1296.5 419C1296.5 410.992 1302.99 404.5 1311 404.5C1319.01 404.5 1325.5 410.992 1325.5 419C1325.5 427.008 1319.01 433.5 1311 433.5Z"
          fill="#090909" stroke="#1F1F1F" />
        <path
          d="M1479.5 15.5H1491.5C1492.33 15.5 1493 16.1716 1493 17V29C1493 29.8284 1492.33 30.5 1491.5 30.5H1479.5C1478.67 30.5 1478 29.8284 1478 29V17C1478 16.1716 1478.67 15.5 1479.5 15.5Z"
          fill="#090909" stroke="#1F1F1F" />
        <path
          d="M1368.5 262.5C1360.49 262.5 1354 256.008 1354 248C1354 239.992 1360.49 233.5 1368.5 233.5C1376.51 233.5 1383 239.992 1383 248C1383 256.008 1376.51 262.5 1368.5 262.5Z"
          fill="#090909" stroke="#1F1F1F" />
        <path
          d="M1433.5 179.5C1431.01 179.5 1429 177.485 1429 175C1429 172.515 1431.01 170.5 1433.5 170.5C1435.99 170.5 1438 172.515 1438 175C1438 177.485 1435.99 179.5 1433.5 179.5Z"
          fill="#090909" stroke="#1F1F1F" />
        <path
          d="M1244.59 249.784L1255.22 256.2C1256.22 256.804 1257.5 256.084 1257.5 254.916V242.084C1257.5 240.916 1256.22 240.196 1255.22 240.8L1244.59 247.216C1243.63 247.799 1243.63 249.201 1244.59 249.784Z"
          fill="#090909" stroke="#1F1F1F" />
        <path
          d="M1515.78 416.405L1522.2 405.775C1522.8 404.775 1522.08 403.5 1520.91 403.5H1508.08C1506.91 403.5 1506.19 404.775 1506.8 405.775L1513.21 416.405C1513.8 417.371 1515.2 417.371 1515.78 416.405Z"
          fill="#090909" stroke="#1F1F1F" />
        <path
          d="M1486.8 109.75L1490.26 103.75C1490.84 102.75 1490.12 101.5 1488.96 101.5H1482.03C1480.88 101.5 1480.16 102.75 1480.73 103.75L1484.2 109.75C1484.78 110.75 1486.22 110.75 1486.8 109.75Z"
          fill="#090909" stroke="#1F1F1F" />
      </g>
    </g>
    <mask id="mask8_95_9608" style="mask-type:luminance" maskUnits="userSpaceOnUse" x="334" y="-23" width="630"
      height="457">
      <path d="M964 -23H334V434H964V-23Z" fill="white" />
    </mask>
    <g mask="url(#mask8_95_9608)">
      <mask id="mask9_95_9608" style="mask-type:alpha" maskUnits="userSpaceOnUse" x="334" y="-23" width="630"
        height="457">
        <path d="M964 -23H334V434H964V-23Z" fill="url(#paint7_linear_95_9608)" />
      </mask>
      <g mask="url(#mask9_95_9608)">
        <path
          d="M961.336 248.612C961.336 250.085 962.53 251.279 964.003 251.279C965.475 251.279 966.669 250.085 966.669 248.612C966.669 247.139 965.475 245.945 964.003 245.945C962.53 245.945 961.336 247.139 961.336 248.612ZM623.002 -23C623.002 -23.276 622.778 -23.5 622.502 -23.5C622.226 -23.5 622.002 -23.276 622.002 -23H623.002ZM746.579 249.112H964.003V248.112H746.579V249.112ZM626.118 120.776L734.196 243.516L734.946 242.855L626.869 120.115L626.118 120.776ZM622.002 -23V109.872H623.002V-23H622.002ZM626.869 120.115C624.377 117.285 623.002 113.643 623.002 109.872H622.002C622.002 113.886 623.466 117.763 626.118 120.776L626.869 120.115ZM746.579 248.112C742.127 248.112 737.889 246.197 734.946 242.855L734.196 243.516C737.328 247.073 741.839 249.112 746.579 249.112V248.112Z"
          fill="#1F1F1F" />
        <path
          d="M590.683 432.5C590.683 433.973 591.877 435.167 593.349 435.167C594.822 435.167 596.016 433.973 596.016 432.5C596.016 431.027 594.822 429.833 593.349 429.833C591.877 429.833 590.683 431.027 590.683 432.5ZM304.333 3C304.333 4.473 305.527 5.66699 307 5.66699C308.473 5.66699 309.666 4.473 309.666 3C309.666 1.527 308.473 0.333008 307 0.333008C305.527 0.333008 304.333 1.527 304.333 3ZM592.849 196.666V432.5H593.849V196.666H592.849ZM523.902 112.739L588.967 186.405L589.716 185.743L524.651 112.077L523.902 112.739ZM417.628 107.5H512.285V106.5H417.628V107.5ZM406.667 101.96L307.353 2.646L306.646 3.354L405.96 102.668L406.667 101.96ZM417.628 106.5C413.517 106.5 409.574 104.867 406.667 101.96L405.96 102.668C409.055 105.762 413.251 107.5 417.628 107.5V106.5ZM524.651 112.077C521.519 108.531 517.016 106.5 512.285 106.5V107.5C516.729 107.5 520.96 109.408 523.902 112.739L524.651 112.077ZM593.849 196.666C593.849 192.643 592.38 188.759 589.716 185.743L588.967 186.405C591.469 189.238 592.849 192.887 592.849 196.666H593.849Z"
          fill="#1F1F1F" />
        <path
          d="M593.502 304.5C601.51 304.5 608.002 298.008 608.002 290C608.002 281.992 601.51 275.5 593.502 275.5C585.494 275.5 579.002 281.992 579.002 290C579.002 298.008 585.494 304.5 593.502 304.5Z"
          fill="#090909" stroke="#1F1F1F" />
        <path
          d="M419.73 102.337L409.929 95.4125C409.252 94.9345 408.316 95.0955 407.838 95.7721L400.914 105.573C400.436 106.25 400.597 107.186 401.274 107.664L411.075 114.588C411.752 115.066 412.688 114.905 413.166 114.228L420.09 104.427C420.568 103.751 420.407 102.815 419.73 102.337Z"
          fill="#090909" stroke="#1F1F1F" />
        <path
          d="M520.891 111.019L514.021 111.921C512.876 112.072 511.998 110.926 512.44 109.86L515.094 103.46C515.536 102.393 516.967 102.205 517.67 103.121L521.886 108.619C522.588 109.535 522.035 110.869 520.891 111.019Z"
          fill="#090909" stroke="#1F1F1F" />
        <path
          d="M593 195.5C595.485 195.5 597.5 193.485 597.5 191C597.5 188.515 595.485 186.5 593 186.5C590.515 186.5 588.5 188.515 588.5 191C588.5 193.485 590.515 195.5 593 195.5Z"
          fill="#090909" stroke="#1F1F1F" />
        <path
          d="M794.835 418.653C794.835 420.126 796.029 421.319 797.502 421.319C798.975 421.319 800.169 420.126 800.169 418.653C800.169 417.18 798.975 415.986 797.502 415.986C796.029 415.986 794.835 417.18 794.835 418.653ZM467.335 -15.5C467.335 -14.027 468.529 -12.833 470.002 -12.833C471.475 -12.833 472.669 -14.027 472.669 -15.5C472.669 -16.973 471.475 -18.167 470.002 -18.167C468.529 -18.167 467.335 -16.973 467.335 -15.5ZM649.349 270.5H648.849V270.707L648.996 270.854L649.349 270.5ZM469.619 -15.178L645.208 193.468L645.974 192.824L470.385 -15.822L469.619 -15.178ZM648.849 203.449V270.5H649.849V203.449H648.849ZM648.996 270.854L797.148 419.006L797.856 418.299L649.703 270.146L648.996 270.854ZM645.208 193.468C647.56 196.262 648.849 199.797 648.849 203.449H649.849C649.849 199.561 648.477 195.799 645.974 192.824L645.208 193.468Z"
          fill="#1F1F1F" />
        <path
          d="M530.396 58.498L518.771 54.137C517.678 53.727 517.452 52.28 518.368 51.556L528.435 43.599C529.351 42.875 530.707 43.429 530.853 44.587L532.411 56.905C532.552 58.025 531.453 58.894 530.396 58.498Z"
          fill="#090909" stroke="#1F1F1F" />
        <path
          d="M598.512 128.663L589.319 136.377C588.684 136.909 588.602 137.855 589.134 138.49L596.848 147.683C597.38 148.317 598.326 148.4 598.961 147.867L608.153 140.154C608.788 139.622 608.871 138.675 608.338 138.041L600.625 128.848C600.092 128.214 599.146 128.131 598.512 128.663Z"
          fill="#090909" stroke="#1F1F1F" />
        <path
          d="M648.203 269.75L644.739 263.75C644.161 262.75 644.883 261.5 646.038 261.5H652.966C654.121 261.5 654.842 262.75 654.265 263.75L650.801 269.75C650.224 270.75 648.78 270.75 648.203 269.75Z"
          fill="#090909" stroke="#1F1F1F" />
        <path
          d="M720.002 345.5C722.487 345.5 724.502 343.485 724.502 341C724.502 338.515 722.487 336.5 720.002 336.5C717.517 336.5 715.502 338.515 715.502 341C715.502 343.485 717.517 345.5 720.002 345.5Z"
          fill="#090909" stroke="#1F1F1F" />
        <path
          d="M797.002 433.5C805.01 433.5 811.502 427.008 811.502 419C811.502 410.992 805.01 404.5 797.002 404.5C788.994 404.5 782.502 410.992 782.502 419C782.502 427.008 788.994 433.5 797.002 433.5Z"
          fill="#090909" stroke="#1F1F1F" />
        <path
          d="M628.502 15.5H616.502C615.674 15.5 615.002 16.1716 615.002 17V29C615.002 29.8284 615.674 30.5 616.502 30.5H628.502C629.33 30.5 630.002 29.8284 630.002 29V17C630.002 16.1716 629.33 15.5 628.502 15.5Z"
          fill="#090909" stroke="#1F1F1F" />
        <path
          d="M739.502 262.5C747.51 262.5 754.002 256.008 754.002 248C754.002 239.992 747.51 233.5 739.502 233.5C731.494 233.5 725.002 239.992 725.002 248C725.002 256.008 731.494 262.5 739.502 262.5Z"
          fill="#090909" stroke="#1F1F1F" />
        <path
          d="M674.502 179.5C676.987 179.5 679.002 177.485 679.002 175C679.002 172.515 676.987 170.5 674.502 170.5C672.017 170.5 670.002 172.515 670.002 175C670.002 177.485 672.017 179.5 674.502 179.5Z"
          fill="#090909" stroke="#1F1F1F" />
        <path
          d="M863.407 249.784L852.777 256.2C851.777 256.804 850.502 256.084 850.502 254.916V242.084C850.502 240.916 851.777 240.196 852.777 240.8L863.407 247.216C864.373 247.799 864.373 249.201 863.407 249.784Z"
          fill="#090909" stroke="#1F1F1F" />
        <path
          d="M592.218 416.405L585.802 405.775C585.198 404.775 585.918 403.5 587.086 403.5H599.918C601.086 403.5 601.806 404.775 601.202 405.775L594.786 416.405C594.203 417.371 592.801 417.371 592.218 416.405Z"
          fill="#090909" stroke="#1F1F1F" />
        <path
          d="M621.203 109.75L617.739 103.75C617.161 102.75 617.883 101.5 619.038 101.5H625.966C627.121 101.5 627.842 102.75 627.265 103.75L623.801 109.75C623.224 110.75 621.78 110.75 621.203 109.75Z"
          fill="#090909" stroke="#1F1F1F" />
      </g>
    </g>
    <g filter="url(#filter0_f_95_9608)">
      <path
        d="M516.884 -175.035C510.629 -191.494 493.104 -200.725 475.993 -196.574C455.571 -191.62 444.114 -169.888 451.565 -150.239L531.354 60.172C532.554 63.337 534.204 66.312 536.253 69.006L787.517 399.413C789.916 402.567 791.765 406.103 792.987 409.872L840.701 557.039C846.626 575.311 866.095 585.47 884.471 579.876L887.722 578.887C906.695 573.112 917.164 552.819 910.873 534.011L850.077 352.233C848.826 348.491 846.955 344.987 844.542 341.865L589.567 11.942C587.446 9.19799 585.742 6.156 584.51 2.914L516.884 -175.035Z"
        fill="url(#paint8_linear_95_9608)" />
    </g>
    <g filter="url(#filter1_f_95_9608)">
      <path
        d="M389.05 -96.217C382.807 -110.679 367.687 -119.203 352.082 -117.059C329.112 -113.904 315.471 -89.725 324.65 -68.433L451.922 226.782C452.89 229.026 454.089 231.164 455.499 233.161L790.18 706.95C791.834 709.29 793.196 711.83 794.236 714.5L878.876 931.94C885.151 948.06 902.2 957.24 919.111 953.6L923.14 952.74C944.437 948.16 956.516 925.54 948.476 905.29L847.036 649.83C845.983 647.18 844.612 644.67 842.953 642.35L504.222 168.533C502.765 166.495 501.53 164.308 500.537 162.009L389.05 -96.217Z"
        fill="url(#paint9_linear_95_9608)" />
    </g>
    <g filter="url(#filter2_f_95_9608)">
      <path
        d="M184.236 16.271C173.11 2.62598 173.878 -17.167 186.028 -29.91C200.529 -45.119 225.079 -44.175 238.369 -27.898L380.696 146.407C382.837 149.029 384.589 151.945 385.897 155.066L546.405 537.871C547.938 541.525 550.075 544.895 552.729 547.838L656.322 662.74C669.184 677.01 668.246 698.95 654.215 712.07L651.733 714.39C637.244 727.93 614.436 726.85 601.293 712L474.267 568.46C471.652 565.506 469.552 562.133 468.055 558.482L309.821 172.706C308.505 169.497 306.722 166.5 304.531 163.813L184.236 16.271Z"
        fill="url(#paint10_linear_95_9608)" />
    </g>
    <g filter="url(#filter3_f_95_9608)">
      <path
        d="M1591.69 -175.035C1597.94 -191.494 1615.47 -200.725 1632.58 -196.574C1653 -191.62 1664.46 -169.888 1657 -150.239L1577.22 60.172C1576.02 63.337 1574.37 66.312 1572.32 69.006L1321.05 399.413C1318.65 402.567 1316.8 406.103 1315.58 409.872L1267.87 557.039C1261.94 575.311 1242.47 585.47 1224.1 579.876L1220.85 578.887C1201.87 573.112 1191.41 552.819 1197.7 534.011L1258.49 352.233C1259.74 348.491 1261.61 344.987 1264.03 341.865L1519 11.942C1521.12 9.19799 1522.83 6.156 1524.06 2.914L1591.69 -175.035Z"
        fill="url(#paint11_linear_95_9608)" />
    </g>
    <g filter="url(#filter4_f_95_9608)">
      <path
        d="M1719.52 -96.217C1725.76 -110.679 1740.88 -119.203 1756.49 -117.059C1779.46 -113.904 1793.1 -89.725 1783.92 -68.433L1656.65 226.782C1655.68 229.026 1654.48 231.164 1653.07 233.161L1318.39 706.95C1316.74 709.29 1315.37 711.83 1314.33 714.5L1229.69 931.94C1223.42 948.06 1206.37 957.24 1189.46 953.6L1185.43 952.74C1164.13 948.16 1152.05 925.54 1160.09 905.29L1261.53 649.83C1262.59 647.18 1263.96 644.67 1265.62 642.35L1604.35 168.533C1605.8 166.495 1607.04 164.308 1608.03 162.009L1719.52 -96.217Z"
        fill="url(#paint12_linear_95_9608)" />
    </g>
    <g filter="url(#filter5_f_95_9608)">
      <path
        d="M1924.33 16.271C1935.46 2.62598 1934.69 -17.167 1922.54 -29.91C1908.04 -45.119 1883.49 -44.175 1870.2 -27.898L1727.87 146.407C1725.73 149.029 1723.98 151.945 1722.67 155.066L1562.16 537.871C1560.63 541.525 1558.49 544.895 1555.84 547.838L1452.25 662.74C1439.39 677.01 1440.32 698.95 1454.35 712.07L1456.84 714.39C1471.32 727.93 1494.13 726.85 1507.28 712L1634.3 568.46C1636.92 565.506 1639.02 562.133 1640.51 558.482L1798.75 172.706C1800.06 169.497 1801.85 166.5 1804.04 163.813L1924.33 16.271Z"
        fill="url(#paint13_linear_95_9608)" />
    </g>
  </g>
  <defs>
    <filter id="filter0_f_95_9608" x="273.135" y="-373.709" width="815.713" height="1131.27"
      filterUnits="userSpaceOnUse" color-interpolation-filters="sRGB">
      <feFlood flood-opacity="0" result="BackgroundImageFix" />
      <feBlend mode="normal" in="SourceGraphic" in2="BackgroundImageFix" result="shape" />
      <feGaussianBlur stdDeviation="88.0725" result="effect1_foregroundBlur_95_9608" />
    </filter>
    <filter id="filter1_f_95_9608" x="145.615" y="-293.532" width="981.511" height="1424.07"
      filterUnits="userSpaceOnUse" color-interpolation-filters="sRGB">
      <feFlood flood-opacity="0" result="BackgroundImageFix" />
      <feBlend mode="normal" in="SourceGraphic" in2="BackgroundImageFix" result="shape" />
      <feGaussianBlur stdDeviation="88.0725" result="effect1_foregroundBlur_95_9608" />
    </filter>
    <filter id="filter2_f_95_9608" x="0.232071" y="-216.882" width="841.299" height="1116.91"
      filterUnits="userSpaceOnUse" color-interpolation-filters="sRGB">
      <feFlood flood-opacity="0" result="BackgroundImageFix" />
      <feBlend mode="normal" in="SourceGraphic" in2="BackgroundImageFix" result="shape" />
      <feGaussianBlur stdDeviation="88.0725" result="effect1_foregroundBlur_95_9608" />
    </filter>
    <filter id="filter3_f_95_9608" x="1019.72" y="-373.709" width="815.709" height="1131.27"
      filterUnits="userSpaceOnUse" color-interpolation-filters="sRGB">
      <feFlood flood-opacity="0" result="BackgroundImageFix" />
      <feBlend mode="normal" in="SourceGraphic" in2="BackgroundImageFix" result="shape" />
      <feGaussianBlur stdDeviation="88.0725" result="effect1_foregroundBlur_95_9608" />
    </filter>
    <filter id="filter4_f_95_9608" x="981.44" y="-293.532" width="981.515" height="1424.07" filterUnits="userSpaceOnUse"
      color-interpolation-filters="sRGB">
      <feFlood flood-opacity="0" result="BackgroundImageFix" />
      <feBlend mode="normal" in="SourceGraphic" in2="BackgroundImageFix" result="shape" />
      <feGaussianBlur stdDeviation="88.0725" result="effect1_foregroundBlur_95_9608" />
    </filter>
    <filter id="filter5_f_95_9608" x="1267.04" y="-216.882" width="841.297" height="1116.91"
      filterUnits="userSpaceOnUse" color-interpolation-filters="sRGB">
      <feFlood flood-opacity="0" result="BackgroundImageFix" />
      <feBlend mode="normal" in="SourceGraphic" in2="BackgroundImageFix" result="shape" />
      <feGaussianBlur stdDeviation="88.0725" result="effect1_foregroundBlur_95_9608" />
    </filter>
    <radialGradient id="paint0_radial_95_9608" cx="0" cy="0" r="1" gradientUnits="userSpaceOnUse"
      gradientTransform="translate(1053.35 248.41) rotate(-90) scale(31.3882 205.016)">
      <stop stop-color="#C2C2C2" />
      <stop offset="1" stop-color="#D9D9D9" stop-opacity="0" />
    </radialGradient>
    <radialGradient id="paint1_radial_95_9608" cx="0" cy="0" r="1" gradientUnits="userSpaceOnUse"
      gradientTransform="translate(1053.35 248.41) rotate(-90) scale(31.3882 205.016)">
      <stop stop-color="#C2C2C2" />
      <stop offset="1" stop-color="#D9D9D9" stop-opacity="0" />
    </radialGradient>
    <radialGradient id="paint2_radial_95_9608" cx="0" cy="0" r="1" gradientUnits="userSpaceOnUse"
      gradientTransform="translate(1053.35 248.41) rotate(-90) scale(31.3882 205.016)">
      <stop stop-color="#C2C2C2" />
      <stop offset="1" stop-color="#D9D9D9" stop-opacity="0" />
    </radialGradient>
    <radialGradient id="paint3_radial_95_9608" cx="0" cy="0" r="1" gradientUnits="userSpaceOnUse"
      gradientTransform="translate(1053.35 248.41) rotate(-90) scale(31.3882 205.016)">
      <stop stop-color="#C2C2C2" />
      <stop offset="1" stop-color="#D9D9D9" stop-opacity="0" />
    </radialGradient>
    <radialGradient id="paint4_radial_95_9608" cx="0" cy="0" r="1" gradientUnits="userSpaceOnUse"
      gradientTransform="translate(1053.35 248.41) rotate(-90) scale(31.3882 205.016)">
      <stop stop-color="#C2C2C2" />
      <stop offset="1" stop-color="#D9D9D9" stop-opacity="0" />
    </radialGradient>
    <radialGradient id="paint5_radial_95_9608" cx="0" cy="0" r="1" gradientUnits="userSpaceOnUse"
      gradientTransform="translate(1053.35 248.41) rotate(-90) scale(31.3882 205.016)">
      <stop stop-color="#C2C2C2" />
      <stop offset="1" stop-color="#D9D9D9" stop-opacity="0" />
    </radialGradient>
    <linearGradient id="paint6_linear_95_9608" x1="1459" y1="430" x2="1459" y2="236" gradientUnits="userSpaceOnUse">
      <stop stop-color="#090909" stop-opacity="0" />
      <stop offset="1" stop-color="white" />
    </linearGradient>
    <linearGradient id="paint7_linear_95_9608" x1="649" y1="430" x2="649" y2="236" gradientUnits="userSpaceOnUse">
      <stop stop-color="#090909" stop-opacity="0" />
      <stop offset="1" stop-color="white" />
    </linearGradient>
    <linearGradient id="paint8_linear_95_9608" x1="457.212" y1="-198.607" x2="905.598" y2="578.02"
      gradientUnits="userSpaceOnUse">
      <stop stop-color="#57FCFF" />
      <stop offset="0.467247" stop-color="#5AA7FF" stop-opacity="0.48" />
      <stop offset="1" stop-color="#090909" stop-opacity="0" />
    </linearGradient>
    <linearGradient id="paint9_linear_95_9608" x1="326.029" y1="-122.12" x2="947.12" y2="953.64"
      gradientUnits="userSpaceOnUse">
      <stop stop-color="#57FCFF" />
      <stop offset="0.467247" stop-color="#5AA7FF" stop-opacity="0.48" />
      <stop offset="1" stop-color="#090909" stop-opacity="0" />
    </linearGradient>
    <linearGradient id="paint10_linear_95_9608" x1="193.658" y1="-47.191" x2="642.044" y2="729.44"
      gradientUnits="userSpaceOnUse">
      <stop stop-color="#57FCFF" />
      <stop offset="0.467247" stop-color="#5AA7FF" stop-opacity="0.48" />
      <stop offset="1" stop-color="#090909" stop-opacity="0" />
    </linearGradient>
    <linearGradient id="paint11_linear_95_9608" x1="1651.36" y1="-198.607" x2="1202.97" y2="578.02"
      gradientUnits="userSpaceOnUse">
      <stop stop-color="#57FCFF" />
      <stop offset="0.467247" stop-color="#5AA7FF" stop-opacity="0.48" />
      <stop offset="1" stop-color="#090909" stop-opacity="0" />
    </linearGradient>
    <linearGradient id="paint12_linear_95_9608" x1="1782.54" y1="-122.12" x2="1161.45" y2="953.64"
      gradientUnits="userSpaceOnUse">
      <stop stop-color="#57FCFF" />
      <stop offset="0.467247" stop-color="#5AA7FF" stop-opacity="0.48" />
      <stop offset="1" stop-color="#090909" stop-opacity="0" />
    </linearGradient>
    <linearGradient id="paint13_linear_95_9608" x1="1914.91" y1="-47.191" x2="1466.53" y2="729.44"
      gradientUnits="userSpaceOnUse">
      <stop stop-color="#57FCFF" />
      <stop offset="0.467247" stop-color="#5AA7FF" stop-opacity="0.48" />
      <stop offset="1" stop-color="#090909" stop-opacity="0" />
    </linearGradient>
    <clipPath id="clip0_95_9608">
      <rect width="2109" height="1131" fill="white" />
    </clipPath>
  </defs>
</svg>