<svg width="30" height="32" viewBox="0 0 30 32" fill="none" xmlns="http://www.w3.org/2000/svg">
  <path d="M1.13294 30.0325L4.33988 31.8651C4.50091 31.9543 4.68216 32.0008 4.86628 32C5.05283 32 5.23634 31.9527 5.39961 31.8624L8.59961 30.0309C8.76153 29.9365 8.89594 29.8014 8.9895 29.639C9.08306 29.4766 9.13251 29.2925 9.13294 29.1051V25.2949C9.13268 25.1073 9.08331 24.9229 8.98975 24.7602C8.89619 24.5975 8.76169 24.4621 8.59961 24.3675L5.39961 22.5397V20.8C5.39961 20.6586 5.4558 20.5229 5.55582 20.4229C5.65584 20.3229 5.79149 20.2667 5.93294 20.2667H14.4663V22.5397L11.2663 24.3691C11.1044 24.4635 10.9699 24.5986 10.8764 24.761C10.7828 24.9234 10.7334 25.1075 10.7329 25.2949V29.1051C10.7332 29.2928 10.7826 29.4771 10.8761 29.6398C10.9697 29.8025 11.1042 29.9379 11.2663 30.0325L14.4732 31.8651C14.6342 31.9543 14.8155 32.0008 14.9996 32C15.1862 32 15.3697 31.9527 15.5329 31.8624L18.7329 30.0309C18.8949 29.9365 19.0293 29.8014 19.1228 29.639C19.2164 29.4766 19.2658 29.2925 19.2663 29.1051V25.2949C19.266 25.1073 19.2166 24.9229 19.1231 24.7602C19.0295 24.5975 18.895 24.4621 18.7329 24.3675L15.5329 22.5397V20.2667H24.0663C24.2077 20.2667 24.3434 20.3229 24.4434 20.4229C24.5434 20.5229 24.5996 20.6586 24.5996 20.8V22.5397L21.3996 24.3691C21.2377 24.4635 21.1033 24.5986 21.0097 24.761C20.9162 24.9234 20.8667 25.1075 20.8663 25.2949V29.1051C20.8665 29.2928 20.9159 29.4771 21.0095 29.6398C21.103 29.8025 21.2375 29.9379 21.3996 30.0325L24.6065 31.8651C24.7676 31.9543 24.9488 32.0008 25.1329 32C25.3195 32 25.503 31.9527 25.6663 31.8624L28.8663 30.0309C29.0282 29.9365 29.1626 29.8014 29.2562 29.639C29.3497 29.4766 29.3992 29.2925 29.3996 29.1051V25.2949C29.3993 25.1073 29.35 24.9229 29.2564 24.7602C29.1629 24.5975 29.0284 24.4621 28.8663 24.3675L25.6663 22.5397V20.8C25.6663 20.3757 25.4977 19.9687 25.1976 19.6686C24.8976 19.3686 24.4906 19.2 24.0663 19.2H15.5329V17.4608L18.7329 15.6304C18.8947 15.536 19.029 15.4011 19.1225 15.2389C19.216 15.0767 19.2656 14.8928 19.2663 14.7056V14.4H22.4663C23.6972 14.4009 24.8813 13.9289 25.7741 13.0815C26.6669 12.2342 27.2 11.0762 27.2634 9.84699C27.3267 8.61774 26.9154 7.41114 26.1144 6.47652C25.3135 5.5419 24.1841 4.95069 22.9596 4.82507C22.8377 4.07453 22.4529 3.39178 21.8741 2.89871C21.2952 2.40564 20.56 2.13437 19.7996 2.13334C19.3252 2.13282 18.8568 2.2389 18.4289 2.44374C17.6914 1.50519 16.7059 0.791793 15.5839 0.384239C14.462 -0.0233153 13.2483 -0.108756 12.0804 0.137583C10.9124 0.383921 9.83664 0.952207 8.97484 1.77815C8.11305 2.60409 7.49959 3.65473 7.20388 4.8112C5.96201 4.89619 4.80173 5.46028 3.96785 6.38445C3.13397 7.30862 2.69172 8.52059 2.73441 9.76463C2.7771 11.0087 3.3014 12.1875 4.19667 13.0523C5.09195 13.9171 6.28817 14.4004 7.53294 14.4H10.7329V14.7056C10.7334 14.8932 10.7829 15.0775 10.8764 15.2402C10.97 15.4028 11.1043 15.5383 11.2663 15.6331L14.4663 17.4608V19.2H5.93294C5.5086 19.2 5.10163 19.3686 4.80157 19.6686C4.50151 19.9687 4.33294 20.3757 4.33294 20.8V22.5397L1.13294 24.3691C0.971023 24.4635 0.836613 24.5986 0.743055 24.761C0.649498 24.9234 0.600046 25.1075 0.599609 25.2949V29.1051C0.599874 29.2928 0.649238 29.4771 0.742799 29.6398C0.83636 29.8025 0.970862 29.9379 1.13294 30.0325ZM14.9996 26.5067L12.3361 24.9872L14.9996 23.4667L17.6609 24.9883L14.9996 26.5067ZM11.7996 25.9077L14.4663 27.4304V30.6304L11.7996 29.104V25.9077ZM15.5329 30.6309V27.4309L18.1996 25.9088V29.1088L15.5329 30.6309ZM25.1329 26.5067L22.4695 24.9872L25.1329 23.4667L27.7943 24.9883L25.1329 26.5067ZM21.9329 25.9077L24.5996 27.4304V30.6304L21.9329 29.104V25.9077ZM25.6663 30.6309V27.4309L28.3329 25.9088V29.1088L25.6663 30.6309ZM14.9996 12.1067L12.3329 10.5872L14.9996 9.06667L17.6663 10.5861L14.9996 12.1067ZM15.5329 16.2309V13.0309L18.1996 11.5088V14.7088L15.5329 16.2309ZM7.53294 13.3333C6.5428 13.3311 5.59411 12.9356 4.89558 12.2338C4.19704 11.5321 3.80588 10.5816 3.80814 9.59147C3.81041 8.60133 4.20591 7.65264 4.90764 6.9541C5.60938 6.25557 6.55987 5.86441 7.55001 5.86667C7.57265 5.8664 7.59527 5.86765 7.61774 5.8704C7.62367 5.86947 7.62955 5.86822 7.63534 5.86667C8.23314 5.8827 8.81839 6.04181 9.34201 6.33067C9.42084 6.3749 9.50975 6.39805 9.60014 6.39787C9.71829 6.39788 9.8331 6.35866 9.92654 6.28636C10.02 6.21406 10.0868 6.11278 10.1164 5.99842C10.1461 5.88406 10.1369 5.76308 10.0904 5.65448C10.0439 5.54589 9.9626 5.45581 9.85934 5.3984C9.37428 5.13177 8.84663 4.95131 8.29988 4.86507C8.57748 3.93467 9.1045 3.09803 9.8238 2.44586C10.5431 1.7937 11.4272 1.35091 12.3803 1.16551C13.3333 0.980103 14.319 1.05916 15.2303 1.39411C16.1416 1.72906 16.9439 2.30712 17.55 3.0656C17.2618 3.34873 17.0298 3.68388 16.8663 4.05334C16.8098 4.18291 16.807 4.32962 16.8586 4.46123C16.9102 4.59283 17.012 4.69857 17.1415 4.7552C17.2086 4.78507 17.2813 4.80034 17.3548 4.8C17.4586 4.80005 17.5602 4.7698 17.6471 4.71296C17.734 4.65612 17.8023 4.57515 17.8439 4.48C18.0009 4.12161 18.253 3.81304 18.5729 3.58774C18.5729 3.58774 18.5799 3.58774 18.5831 3.58347C18.8676 3.3845 19.1965 3.25833 19.5411 3.21598C19.8857 3.17364 20.2354 3.21642 20.5597 3.34058C20.8839 3.46474 21.1727 3.6665 21.4009 3.92818C21.629 4.18986 21.7896 4.50349 21.8684 4.8416C20.9889 4.95137 20.1569 5.30206 19.4641 5.85494C19.3538 5.94348 19.2832 6.07223 19.2678 6.21286C19.2601 6.28249 19.2663 6.35294 19.2859 6.42019C19.3055 6.48744 19.3382 6.55017 19.382 6.6048C19.4259 6.65943 19.48 6.70489 19.5414 6.73858C19.6029 6.77228 19.6703 6.79354 19.7399 6.80117C19.8806 6.81657 20.0215 6.77548 20.1319 6.68694C20.7925 6.15313 21.617 5.86342 22.4663 5.86667C23.4564 5.86667 24.406 6.26 25.1061 6.96014C25.8063 7.66027 26.1996 8.60986 26.1996 9.6C26.1996 10.5901 25.8063 11.5397 25.1061 12.2399C24.406 12.94 23.4564 13.3333 22.4663 13.3333H19.2663V10.8949C19.2658 10.7073 19.2163 10.523 19.1228 10.3604C19.0293 10.1977 18.8949 10.0623 18.7329 9.96747L15.5249 8.13387C15.3623 8.04553 15.1801 7.99966 14.995 8.00049C14.8099 8.00133 14.6281 8.04886 14.4663 8.13867L11.2663 9.97014C11.1045 10.0645 10.9703 10.1995 10.8767 10.3617C10.7832 10.5239 10.7336 10.7077 10.7329 10.8949V13.3333H7.53294ZM11.7996 11.5072L14.4663 13.0299V16.2299L11.7996 14.7035V11.5072ZM4.86628 26.5067L2.20281 24.9861L4.86628 23.4667L7.52761 24.9883L4.86628 26.5067ZM1.66628 25.9067L4.33294 27.4293V30.6293L1.66628 29.1051V25.9067ZM5.39961 30.6299V27.4299L8.06628 25.9077V29.1077L5.39961 30.6299Z" fill="white"/>
  </svg>
  