<svg width="180" height="180" viewBox="0 0 180 180" fill="none" xmlns="http://www.w3.org/2000/svg">
  <g filter="url(#filter0_b_1_11410)">
    <rect width="180" height="180" rx="40" fill="#090909" fill-opacity="0.64" />
    <rect x="0.5" y="0.5" width="179" height="179" rx="39.5" stroke="#1F1F1F" />
    <g filter="url(#filter1_ii_1_11410)">
      <g clip-path="url(#clip0_1_11410)">
        <rect x="10" y="10" width="160" height="160" rx="30" fill="white" />
        <rect x="10" y="10" width="160" height="160" rx="30" fill="url(#paint0_linear_1_11410)" />
        <g filter="url(#filter2_f_1_11410)">
          <path
            d="M154.046 7.55384C156.877 2.77508 163.161 1.38931 167.74 4.53393L175.66 9.97378C179.822 12.832 181.059 18.4253 178.49 22.7716L147.039 75.987C146.303 77.2325 145.295 78.2955 144.09 79.0966L52.7184 139.855C51.3147 140.788 50.1815 142.075 49.4328 143.585L31.9142 178.928C29.2549 184.293 22.3869 185.941 17.5827 182.366L8.71973 175.773C4.95615 172.973 3.76717 167.863 5.90801 163.689L30.1973 116.334C30.9641 114.839 32.1098 113.572 33.5199 112.658L126.163 52.6461C127.407 51.8403 128.448 50.7574 129.203 49.4823L154.046 7.55384Z"
            fill="white" fill-opacity="0.64" />
        </g>
        <g filter="url(#filter3_f_1_11410)">
          <path
            d="M156.427 7.67502C159.233 3.75476 164.532 2.56021 168.748 4.8974C173.708 7.64691 175.167 14.104 171.869 18.7183L137.225 67.1994C136.676 67.9676 136.017 68.6506 135.269 69.2264L48.0056 136.369C47.1296 137.043 46.3766 137.863 45.7797 138.794L23.7952 173.06C20.9483 177.498 15.0558 178.809 10.5959 175.998L9.87013 175.54C5.3296 172.678 4.0178 166.649 6.95862 162.159L34.7455 119.735C35.3485 118.814 36.1053 118.004 36.9829 117.34L125.178 50.5914C125.95 50.0076 126.629 49.3105 127.192 48.5238L156.427 7.67502Z"
            fill="white" />
        </g>
        <g filter="url(#filter4_d_1_11410)">
          <path
            d="M55.2742 131H26.3462V45.24H55.2742C81.1302 45.24 97.3862 61.88 97.3862 88.12C97.3862 114.36 81.1302 131 55.2742 131ZM55.2742 53.56H35.4342V122.68H55.2742C78.0582 122.68 87.7862 111.416 87.7862 88.12C87.7862 64.824 78.0582 53.56 55.2742 53.56ZM85.1342 131H75.5342L110.222 45.24H123.278L157.966 131H148.11L137.742 105.912H95.3742L85.1342 131ZM111.246 67L98.7022 97.592H134.286L121.742 67L116.878 53.944H116.238L111.246 67Z"
            fill="black" />
        </g>
      </g>
    </g>
  </g>
  <defs>
    <filter id="filter0_b_1_11410" x="-32" y="-32" width="244" height="244" filterUnits="userSpaceOnUse"
      color-interpolation-filters="sRGB">
      <feFlood flood-opacity="0" result="BackgroundImageFix" />
      <feGaussianBlur in="BackgroundImageFix" stdDeviation="16" />
      <feComposite in2="SourceAlpha" operator="in" result="effect1_backgroundBlur_1_11410" />
      <feBlend mode="normal" in="SourceGraphic" in2="effect1_backgroundBlur_1_11410" result="shape" />
    </filter>
    <filter id="filter1_ii_1_11410" x="10" y="8" width="160" height="170" filterUnits="userSpaceOnUse"
      color-interpolation-filters="sRGB">
      <feFlood flood-opacity="0" result="BackgroundImageFix" />
      <feBlend mode="normal" in="SourceGraphic" in2="BackgroundImageFix" result="shape" />
      <feColorMatrix in="SourceAlpha" type="matrix" values="0 0 0 0 0 0 0 0 0 0 0 0 0 0 0 0 0 0 127 0"
        result="hardAlpha" />
      <feMorphology radius="2" operator="erode" in="SourceAlpha" result="effect1_innerShadow_1_11410" />
      <feOffset dy="-2" />
      <feGaussianBlur stdDeviation="6" />
      <feComposite in2="hardAlpha" operator="arithmetic" k2="-1" k3="1" />
      <feColorMatrix type="matrix" values="0 0 0 0 0.207843 0 0 0 0 0.67451 0 0 0 0 1 0 0 0 0.24 0" />
      <feBlend mode="normal" in2="shape" result="effect1_innerShadow_1_11410" />
      <feColorMatrix in="SourceAlpha" type="matrix" values="0 0 0 0 0 0 0 0 0 0 0 0 0 0 0 0 0 0 127 0"
        result="hardAlpha" />
      <feMorphology radius="4" operator="erode" in="SourceAlpha" result="effect2_innerShadow_1_11410" />
      <feOffset dy="8" />
      <feGaussianBlur stdDeviation="8" />
      <feComposite in2="hardAlpha" operator="arithmetic" k2="-1" k3="1" />
      <feColorMatrix type="matrix" values="0 0 0 0 0.207843 0 0 0 0 0.67451 0 0 0 0 1 0 0 0 1 0" />
      <feBlend mode="normal" in2="effect1_innerShadow_1_11410" result="effect2_innerShadow_1_11410" />
    </filter>
    <filter id="filter2_f_1_11410" x="-62.3509" y="-64.3543" width="309.377" height="315.821"
      filterUnits="userSpaceOnUse" color-interpolation-filters="sRGB">
      <feFlood flood-opacity="0" result="BackgroundImageFix" />
      <feBlend mode="normal" in="SourceGraphic" in2="BackgroundImageFix" result="shape" />
      <feGaussianBlur stdDeviation="33.6" result="effect1_foregroundBlur_1_11410" />
    </filter>
    <filter id="filter3_f_1_11410" x="-42.6118" y="-44.2939" width="264.252" height="269.771"
      filterUnits="userSpaceOnUse" color-interpolation-filters="sRGB">
      <feFlood flood-opacity="0" result="BackgroundImageFix" />
      <feBlend mode="normal" in="SourceGraphic" in2="BackgroundImageFix" result="shape" />
      <feGaussianBlur stdDeviation="24" result="effect1_foregroundBlur_1_11410" />
    </filter>
    <filter id="filter4_d_1_11410" x="11.6597" y="16.4398" width="160.647" height="156.681" filterUnits="userSpaceOnUse"
      color-interpolation-filters="sRGB">
      <feFlood flood-opacity="0" result="BackgroundImageFix" />
      <feColorMatrix in="SourceAlpha" type="matrix" values="0 0 0 0 0 0 0 0 0 0 0 0 0 0 0 0 0 0 127 0"
        result="hardAlpha" />
      <feOffset dy="4.78011" />
      <feGaussianBlur stdDeviation="7.17017" />
      <feComposite in2="hardAlpha" operator="out" />
      <feColorMatrix type="matrix" values="0 0 0 0 0.207843 0 0 0 0 0.67451 0 0 0 0 1 0 0 0 1 0" />
      <feBlend mode="normal" in2="BackgroundImageFix" result="effect1_dropShadow_1_11410" />
      <feBlend mode="normal" in="SourceGraphic" in2="effect1_dropShadow_1_11410" result="shape" />
    </filter>
    <linearGradient id="paint0_linear_1_11410" x1="10" y1="10" x2="169.886" y2="169.886" gradientUnits="userSpaceOnUse">
      <stop stop-color="#35ACFF" />
      <stop offset="0.5" stop-color="#00FFFF" />
      <stop offset="1" stop-color="#35ACFF" />
    </linearGradient>
    <clipPath id="clip0_1_11410">
      <rect x="10" y="10" width="160" height="160" rx="30" fill="white" />
    </clipPath>
  </defs>
</svg>