<svg width="101" height="101" viewBox="0 0 101 101" fill="none" xmlns="http://www.w3.org/2000/svg">
  <g filter="url(#filter0_ii_415_4034)">
    <g clip-path="url(#clip0_415_4034)">
      <rect x="0.0722656" y="0.785645" width="100" height="100" rx="20" fill="white" />
      <rect x="0.0722656" y="0.785645" width="100" height="100" rx="20" fill="url(#paint0_linear_415_4034)" />
      <g filter="url(#filter1_f_415_4034)">
        <path
          d="M116.499 -31.5393C119.305 -35.4596 124.604 -36.6541 128.82 -34.317V-34.317C133.781 -31.5674 135.239 -25.1103 131.941 -20.496L97.2975 27.985C96.7486 28.7533 96.0893 29.4363 95.341 30.0121L8.07785 97.1547C7.20185 97.8287 6.44883 98.649 5.85198 99.5793L-16.1326 133.846C-18.9794 138.283 -24.872 139.595 -29.3319 136.783L-30.0576 136.326C-34.5981 133.464 -35.9099 127.435 -32.9691 122.945L-5.18228 80.5202C-4.57927 79.5996 -3.82244 78.7894 -2.94488 78.1253L85.2506 11.3771C86.022 10.7932 86.7008 10.0961 87.2638 9.3094L116.499 -31.5393Z"
          fill="white" />
      </g>
      <g filter="url(#filter2_d_415_4034)">
        <path d="M81.6526 78.2856H75.8242V23.2856H81.6526V78.2856Z" fill="black" />
        <path
          d="M24.6489 78.2856H18.4922L40.7385 23.2856H49.1116L71.3579 78.2856H65.037L58.3877 62.1961H31.2161L24.6489 78.2856ZM41.3952 37.2409L33.3504 56.8603H56.1713L48.1265 37.2409L45.0071 28.8677H44.5967L41.3952 37.2409Z"
          fill="black" />
      </g>
    </g>
  </g>
  <defs>
    <filter id="filter0_ii_415_4034" x="0.0722656" y="-1.21436" width="100" height="110" filterUnits="userSpaceOnUse"
      color-interpolation-filters="sRGB">
      <feFlood flood-opacity="0" result="BackgroundImageFix" />
      <feBlend mode="normal" in="SourceGraphic" in2="BackgroundImageFix" result="shape" />
      <feColorMatrix in="SourceAlpha" type="matrix" values="0 0 0 0 0 0 0 0 0 0 0 0 0 0 0 0 0 0 127 0"
        result="hardAlpha" />
      <feMorphology radius="2" operator="erode" in="SourceAlpha" result="effect1_innerShadow_415_4034" />
      <feOffset dy="-2" />
      <feGaussianBlur stdDeviation="6" />
      <feComposite in2="hardAlpha" operator="arithmetic" k2="-1" k3="1" />
      <feColorMatrix type="matrix" values="0 0 0 0 0.207843 0 0 0 0 0.67451 0 0 0 0 1 0 0 0 0.24 0" />
      <feBlend mode="normal" in2="shape" result="effect1_innerShadow_415_4034" />
      <feColorMatrix in="SourceAlpha" type="matrix" values="0 0 0 0 0 0 0 0 0 0 0 0 0 0 0 0 0 0 127 0"
        result="hardAlpha" />
      <feMorphology radius="4" operator="erode" in="SourceAlpha" result="effect2_innerShadow_415_4034" />
      <feOffset dy="8" />
      <feGaussianBlur stdDeviation="8" />
      <feComposite in2="hardAlpha" operator="arithmetic" k2="-1" k3="1" />
      <feColorMatrix type="matrix" values="0 0 0 0 0.207843 0 0 0 0 0.67451 0 0 0 0 1 0 0 0 1 0" />
      <feBlend mode="normal" in2="effect1_innerShadow_415_4034" result="effect2_innerShadow_415_4034" />
    </filter>
    <filter id="filter1_f_415_4034" x="-82.54" y="-83.5079" width="264.252" height="269.771"
      filterUnits="userSpaceOnUse" color-interpolation-filters="sRGB">
      <feFlood flood-opacity="0" result="BackgroundImageFix" />
      <feBlend mode="normal" in="SourceGraphic" in2="BackgroundImageFix" result="shape" />
      <feGaussianBlur stdDeviation="24" result="effect1_foregroundBlur_415_4034" />
    </filter>
    <filter id="filter2_d_415_4034" x="-28.2681" y="-22.7746" width="156.681" height="156.681"
      filterUnits="userSpaceOnUse" color-interpolation-filters="sRGB">
      <feFlood flood-opacity="0" result="BackgroundImageFix" />
      <feColorMatrix in="SourceAlpha" type="matrix" values="0 0 0 0 0 0 0 0 0 0 0 0 0 0 0 0 0 0 127 0"
        result="hardAlpha" />
      <feOffset dy="4.78011" />
      <feGaussianBlur stdDeviation="7.17017" />
      <feComposite in2="hardAlpha" operator="out" />
      <feColorMatrix type="matrix" values="0 0 0 0 0.207843 0 0 0 0 0.67451 0 0 0 0 1 0 0 0 1 0" />
      <feBlend mode="normal" in2="BackgroundImageFix" result="effect1_dropShadow_415_4034" />
      <feBlend mode="normal" in="SourceGraphic" in2="effect1_dropShadow_415_4034" result="shape" />
    </filter>
    <linearGradient id="paint0_linear_415_4034" x1="-15.6285" y1="50.7856" x2="116.704" y2="50.7856"
      gradientUnits="userSpaceOnUse">
      <stop stop-color="#35ACFF" />
      <stop offset="0.5" stop-color="#00FFFF" />
      <stop offset="1" stop-color="#35ACFF" />
    </linearGradient>
    <clipPath id="clip0_415_4034">
      <rect x="0.0722656" y="0.785645" width="100" height="100" rx="20" fill="white" />
    </clipPath>
  </defs>
</svg>